<svg xmlns="http://www.w3.org/2000/svg" x="0px" y="0px"
width="40" height="40"
viewBox="0 0 172 172"
style=" fill:#ffffff;"><g fill="none" fill-rule="nonzero" stroke="none" stroke-width="1" stroke-linecap="butt" stroke-linejoin="miter" stroke-miterlimit="10" stroke-dasharray="" stroke-dashoffset="0" font-family="none" font-weight="none" font-size="none" text-anchor="none" style="mix-blend-mode: normal"><path d="M0,172v-172h172v172z" fill="none"></path><g fill="#ffffff"><path d="M130.84094,48.11969c-1.3975,-0.02687 -2.67406,0.80625 -3.23844,2.08281c-0.55094,1.29 -0.26875,2.78156 0.71219,3.77594l27.43938,28.58156h-148.79344c-1.23625,-0.01344 -2.39188,0.63156 -3.01,1.70656c-0.63156,1.075 -0.63156,2.39187 0,3.46687c0.61812,1.075 1.77375,1.72 3.01,1.70656h148.79344l-27.43938,28.58156c-1.31687,1.37062 -1.26312,3.5475 0.1075,4.86437c1.37063,1.31688 3.5475,1.27656 4.86438,-0.1075l35.31375,-36.77844l-35.31375,-36.77844c-0.63156,-0.68531 -1.51844,-1.075 -2.44563,-1.10188z"></path></g></g></svg>