<svg width="745" height="595" viewBox="0 0 745 595" fill="none" xmlns="http://www.w3.org/2000/svg">
<g clip-path="url(#clip0)">
<path fill-rule="evenodd" clip-rule="evenodd" d="M398.102 29.7597C479.613 24.365 574.234 -28.1387 637.102 23.6294C700.62 75.9334 664.694 179.045 677.633 259.94C687.948 324.43 725.244 386.898 705.151 449.076C685.029 511.347 630.56 557.702 571.83 587.361C518.674 614.205 457.222 596.323 398.102 604.137C325.712 613.705 252.571 670.411 187.151 638.203C121.565 605.914 115.705 517.141 86.2719 450.617C52.7399 374.831 -15.9143 303.321 3.3496 222.789C22.7811 141.555 105.724 90.7059 181.193 53.8027C248.09 21.0908 323.689 34.6845 398.102 29.7597Z" fill="#98B1D8"/>
<path d="M412.622 490.91C377.768 490.91 349.513 484.664 349.513 476.96C349.513 469.256 377.768 463.01 412.622 463.01C447.477 463.01 475.733 469.256 475.733 476.96C475.733 484.664 447.477 490.91 412.622 490.91Z" fill="black"/>
<path d="M412.622 476.96L448.073 587.91" stroke="black" stroke-width="4" stroke-miterlimit="10" stroke-linecap="round"/>
<path d="M412.622 476.96L377.173 587.91" stroke="black" stroke-width="4" stroke-miterlimit="10" stroke-linecap="round"/>
<path d="M436.432 551.48L396.913 526.14" stroke="black" stroke-width="2" stroke-miterlimit="10" stroke-linecap="round"/>
<path d="M428.492 526.14L388.962 551.48" stroke="black" stroke-width="2" stroke-miterlimit="10" stroke-linecap="round"/>
<path d="M350.513 356.86C350.673 361.78 350.603 379.01 351.413 386.38" stroke="#1F161E" stroke-miterlimit="10" stroke-linecap="round"/>
<path d="M553.543 138.96C553.543 135.464 556.377 132.63 559.873 132.63C563.368 132.63 566.202 135.464 566.202 138.96V160.81C566.202 164.306 563.368 167.14 559.873 167.14C556.377 167.14 553.543 164.306 553.543 160.81V138.96Z" fill="black"/>
<path d="M559.873 203.87C552.858 203.87 547.173 198.184 547.173 191.17C547.173 184.156 552.858 178.47 559.873 178.47C566.887 178.47 572.573 184.156 572.573 191.17C572.573 198.184 566.887 203.87 559.873 203.87Z" fill="#FBDC8E"/>
<path d="M135.292 342H129.292C128.662 341.997 128.058 341.746 127.612 341.3C127.167 340.854 126.915 340.25 126.912 339.62V302.74C126.912 302.427 126.973 302.118 127.093 301.829C127.213 301.541 127.39 301.279 127.612 301.06L135.193 293.48C135.413 293.258 135.674 293.082 135.963 292.962C136.251 292.842 136.56 292.78 136.872 292.78H159.262C159.893 292.783 160.497 293.034 160.943 293.48C161.388 293.926 161.64 294.53 161.642 295.16V298.72" fill="#FBDC8E"/>
<path d="M656.603 430C637.603 433.6 640.992 547 677.463 540.14C711.902 533.6 679.783 425.59 656.603 430Z" fill="black"/>
<path d="M740.023 444C724.903 435.44 661.613 515.08 690.563 531.46C717.913 547 758.433 454.44 740.023 444Z" fill="#FBDC8E"/>
<path d="M662.973 594.92H701.153C702.69 594.92 704.174 594.352 705.32 593.326C706.465 592.301 707.193 590.888 707.363 589.36L712.183 546.08C712.287 545.202 712.204 544.312 711.94 543.469C711.676 542.625 711.236 541.847 710.649 541.186C710.063 540.524 709.343 539.995 708.536 539.632C707.73 539.269 706.857 539.081 705.973 539.08H658.353C657.476 539.081 656.609 539.266 655.808 539.623C655.007 539.981 654.291 540.503 653.705 541.156C653.119 541.808 652.677 542.577 652.408 543.412C652.139 544.246 652.049 545.128 652.143 546L656.753 589.28C656.906 590.824 657.628 592.255 658.777 593.297C659.926 594.339 661.421 594.918 662.973 594.92Z" fill="#969696"/>
<path d="M645.873 385.84C631.403 390.04 642.493 477.57 670.203 469.51C696.363 461.91 663.483 380.72 645.873 385.84Z" fill="#AB8DE5"/>
<path d="M622.013 455.48C612.013 464.1 652.693 530.04 671.913 513.48C690.063 497.91 634.223 445 622.013 455.48Z" fill="#FBDC8E"/>
<path d="M681.962 394.94C660.302 394.94 640.472 533.24 681.962 533.24C721.142 533.24 708.332 394.94 681.962 394.94Z" fill="#78E5E1"/>
<path d="M643.953 529.72H720.153C722.389 529.72 724.203 531.533 724.203 533.77V541.15C724.203 543.387 722.389 545.2 720.153 545.2H643.953C641.716 545.2 639.903 543.387 639.903 541.15V533.77C639.903 531.533 641.716 529.72 643.953 529.72Z" fill="#D8D8D8"/>
<path d="M145.372 298.72H167.372C167.725 298.72 168.075 298.79 168.4 298.925C168.726 299.06 169.022 299.259 169.271 299.508C169.52 299.758 169.717 300.055 169.851 300.381C169.985 300.708 170.054 301.057 170.052 301.41V345.21C170.052 345.922 169.77 346.604 169.268 347.109C168.766 347.613 168.084 347.897 167.372 347.9H137.982C137.271 347.897 136.589 347.613 136.087 347.109C135.584 346.604 135.302 345.922 135.302 345.21V308.81C135.301 308.458 135.369 308.108 135.503 307.782C135.637 307.456 135.834 307.16 136.082 306.91L143.482 299.51C143.983 299.007 144.663 298.723 145.372 298.72V298.72Z" fill="#D8D8D8"/>
<path d="M135.292 307.76H142.762C143.16 307.76 143.542 307.602 143.823 307.321C144.104 307.039 144.262 306.658 144.262 306.26V298.72" fill="#969696"/>
<path d="M126.882 301.83H134.352C134.752 301.827 135.135 301.667 135.417 301.385C135.7 301.102 135.86 300.72 135.862 300.32V292.78" fill="#64CCC4"/>
<path d="M170.022 248.65H221.582C223.256 248.65 224.612 250.007 224.612 251.68V268.52C224.612 270.193 223.256 271.55 221.582 271.55H170.022C168.349 271.55 166.992 270.193 166.992 268.52V251.68C166.992 250.007 168.349 248.65 170.022 248.65Z" fill="#78E5E1"/>
<path d="M195.812 287.25L188.872 266.23H202.753L195.812 287.25Z" fill="#78E5E1"/>
<path d="M209.562 254.75L215.382 264.82H203.753L209.562 254.75Z" fill="white"/>
<path d="M182.052 264.82L176.232 254.75H187.872L182.052 264.82Z" fill="white"/>
<path d="M195.812 264.16C193.399 264.16 191.443 262.203 191.443 259.79C191.443 257.377 193.399 255.42 195.812 255.42C198.226 255.42 200.182 257.377 200.182 259.79C200.182 262.203 198.226 264.16 195.812 264.16Z" fill="white"/>
<path d="M200.303 200.12H234.143C235.606 200.12 236.793 201.306 236.793 202.77V223.23C236.793 224.694 235.606 225.88 234.143 225.88H200.303C198.839 225.88 197.652 224.694 197.652 223.23V202.77C197.652 201.306 198.839 200.12 200.303 200.12Z" fill="#D8D8D8"/>
<path d="M235.562 200.93L217.223 213" stroke="#969696" stroke-width="0.82" stroke-linecap="round" stroke-linejoin="round"/>
<path d="M197.652 200.12L217.222 213" stroke="#969696" stroke-width="0.82" stroke-linecap="round" stroke-linejoin="round"/>
<path d="M197.652 205.72C194.56 205.72 192.052 203.213 192.052 200.12C192.052 197.027 194.56 194.52 197.652 194.52C200.745 194.52 203.253 197.027 203.253 200.12C203.253 203.213 200.745 205.72 197.652 205.72Z" fill="#FBDC8E"/>
<path d="M196.674 201.98H197.337V197.585L198.667 198.073V197.475L196.777 196.765H196.674V201.98Z" fill="white"/>
<path d="M1.23248 215.83H147.232C147.912 215.83 148.462 216.381 148.462 217.06V217.82C148.462 218.499 147.912 219.05 147.232 219.05H1.23248C0.553177 219.05 0.00250244 218.499 0.00250244 217.82V217.06C0.00250244 216.381 0.553177 215.83 1.23248 215.83Z" fill="#D8D8D8"/>
<path d="M85.5625 151.89H94.4325C95.8463 151.89 96.9925 153.036 96.9925 154.45V213.27C96.9925 214.684 95.8463 215.83 94.4325 215.83H85.5625C84.1487 215.83 83.0025 214.684 83.0025 213.27V154.45C83.0025 153.036 84.1487 151.89 85.5625 151.89Z" fill="#969696"/>
<path d="M78.1324 166.88H80.8725C82.0489 166.88 83.0025 167.834 83.0025 169.01V213.7C83.0025 214.876 82.0489 215.83 80.8725 215.83H78.1324C76.9561 215.83 76.0025 214.876 76.0025 213.7V169.01C76.0025 167.834 76.9561 166.88 78.1324 166.88Z" fill="#D8D8D8"/>
<path d="M71.0625 166.88H73.9425C75.0802 166.88 76.0025 167.802 76.0025 168.94V213.77C76.0025 214.908 75.0802 215.83 73.9425 215.83H71.0625C69.9248 215.83 69.0025 214.908 69.0025 213.77V168.94C69.0025 167.802 69.9248 166.88 71.0625 166.88Z" fill="#969696"/>
<path d="M65.9865 170.383L68.3494 171.468C69.4537 171.975 69.9378 173.281 69.4308 174.385L50.8431 214.872C50.3362 215.977 49.0301 216.461 47.9259 215.954L45.563 214.869C44.4588 214.362 43.9746 213.056 44.4815 211.952L63.0692 171.465C63.5762 170.361 64.8823 169.876 65.9865 170.383Z" fill="#D8D8D8"/>
<path d="M90.0025 199.65C87.8431 199.65 86.0925 197.899 86.0925 195.74C86.0925 193.581 87.8431 191.83 90.0025 191.83C92.1619 191.83 93.9125 193.581 93.9125 195.74C93.9125 197.899 92.1619 199.65 90.0025 199.65Z" fill="#D8D8D8"/>
<path d="M86.4625 201.99H93.5425C94.0616 201.99 94.4825 202.411 94.4825 202.93C94.4825 203.449 94.0616 203.87 93.5425 203.87H86.4625C85.9433 203.87 85.5225 203.449 85.5225 202.93C85.5225 202.411 85.9433 201.99 86.4625 201.99Z" fill="#D8D8D8"/>
<path d="M86.4625 206.8H93.5425C94.0616 206.8 94.4825 207.221 94.4825 207.74C94.4825 208.259 94.0616 208.68 93.5425 208.68H86.4625C85.9433 208.68 85.5225 208.259 85.5225 207.74C85.5225 207.221 85.9433 206.8 86.4625 206.8Z" fill="#D8D8D8"/>
<path d="M158.102 303.24H165.182C165.702 303.24 166.122 303.661 166.122 304.18C166.122 304.699 165.702 305.12 165.182 305.12H158.102C157.583 305.12 157.162 304.699 157.162 304.18C157.162 303.661 157.583 303.24 158.102 303.24Z" fill="#969696"/>
<path d="M158.102 307.76H165.182C165.702 307.76 166.122 308.181 166.122 308.7C166.122 309.219 165.702 309.64 165.182 309.64H158.102C157.583 309.64 157.162 309.219 157.162 308.7C157.162 308.181 157.583 307.76 158.102 307.76Z" fill="#969696"/>
<path d="M139.742 315.49H165.592C166.112 315.49 166.532 315.911 166.532 316.43C166.532 316.949 166.112 317.37 165.592 317.37H139.742C139.223 317.37 138.802 316.949 138.802 316.43C138.802 315.911 139.223 315.49 139.742 315.49Z" fill="#969696"/>
<path d="M139.742 319.93H165.592C166.112 319.93 166.532 320.351 166.532 320.87C166.532 321.389 166.112 321.81 165.592 321.81H139.742C139.223 321.81 138.802 321.389 138.802 320.87C138.802 320.351 139.223 319.93 139.742 319.93Z" fill="#969696"/>
<path d="M139.742 324.37H165.592C166.112 324.37 166.532 324.791 166.532 325.31C166.532 325.829 166.112 326.25 165.592 326.25H139.742C139.223 326.25 138.802 325.829 138.802 325.31C138.802 324.791 139.223 324.37 139.742 324.37Z" fill="#969696"/>
<path d="M78.7725 174.27C78.7725 173.867 79.0993 173.54 79.5025 173.54C79.9057 173.54 80.2325 173.867 80.2325 174.27V208.43C80.2325 208.833 79.9057 209.16 79.5025 209.16C79.0993 209.16 78.7725 208.833 78.7725 208.43V174.27Z" fill="#969696"/>
<path d="M109.482 217.44H115.742C117.118 217.44 118.232 218.555 118.232 219.93C118.232 221.305 117.118 222.42 115.742 222.42H109.482C108.107 222.42 106.992 221.305 106.992 219.93C106.992 218.555 108.107 217.44 109.482 217.44Z" fill="#D8D8D8"/>
<path d="M32.7225 217.44H38.9825C40.3577 217.44 41.4725 218.555 41.4725 219.93C41.4725 221.305 40.3577 222.42 38.9825 222.42H32.7225C31.3473 222.42 30.2325 221.305 30.2325 219.93C30.2325 218.555 31.3473 217.44 32.7225 217.44Z" fill="#D8D8D8"/>
<path d="M269.013 222.31H305.522C312.15 222.31 317.522 227.683 317.522 234.31V252.12C317.522 258.747 312.15 264.12 305.522 264.12H269.013C262.385 264.12 257.013 258.747 257.013 252.12V234.31C257.013 227.683 262.385 222.31 269.013 222.31Z" fill="#D8D8D8"/>
<path d="M295.902 229.04H305.003V257.39H295.902V229.04Z" fill="#AB8DE5"/>
<path d="M282.712 247.9H291.812V257.4H282.712V247.9Z" fill="#AB8DE5"/>
<path d="M269.533 239.9H278.633V257.39H269.533V239.9Z" fill="#AB8DE5"/>
<path d="M559.872 152.88C564.902 152.879 569.882 153.868 574.529 155.792C579.175 157.715 583.397 160.536 586.954 164.091C590.511 167.647 593.332 171.869 595.257 176.515C597.182 181.161 598.172 186.141 598.172 191.17H521.572C521.572 186.141 522.563 181.161 524.488 176.515C526.413 171.869 529.234 167.647 532.791 164.091C536.348 160.536 540.57 157.715 545.216 155.792C549.863 153.868 554.843 152.879 559.872 152.88V152.88Z" fill="#AB8DE5"/>
<path d="M559.873 139.92V1" stroke="black" stroke-width="2" stroke-linecap="round" stroke-linejoin="round"/>
<path d="M259.473 574.68C259.473 577.05 260.863 592 258.093 593.38C255.323 594.76 224.873 595.6 223.493 594.21C222.113 592.82 221.283 589.92 222.493 589.09C223.703 588.26 235.493 585.91 237.093 584.8C238.693 583.69 240.903 577.8 240.093 574.68" fill="#1F161E"/>
<path d="M350.513 379.25L333.372 373.1C334.112 341.83 341.423 271.96 351.803 261.57C354.243 259.14 402.503 254.9 411.113 254.9C462.493 254.9 477.733 260.76 481.603 264.64C493.603 276.64 497.342 332.24 497.342 351.71C497.342 371.18 442.342 381.28 442.342 381.28L377.872 385.71C377.872 385.71 363.733 387.17 351.503 387.89C351.233 384.14 350.513 379.25 350.513 379.25Z" fill="#78E5E1"/>
<path d="M299.443 397.38C294.753 395.99 248.113 388.38 237.953 398.38C227.793 408.38 195.813 551.75 195.813 555.05H221.563L256.323 480.24" fill="#1F161E"/>
<path d="M469.253 384.63C470.423 390.48 477.453 396.76 477.453 428.63C477.453 472.7 441.353 473.63 428.393 473.63C388.013 473.63 322.682 461.63 318.272 459.43C315.342 464.33 261.413 574.43 261.163 576.89H236.333C236.333 576.89 251.722 412.17 279.492 393.49C288.512 387.49 448.543 381.07 469.253 384.63Z" fill="#55B79D"/>
<path d="M323.853 352.41C330.373 352.41 335.753 353.96 350.513 356.86L351.283 385.1C337.283 379.46 334.033 371.62 329.973 371.62C319.833 371.62 314.533 376.85 308.543 376.85C304.363 376.85 296.842 373.57 296.842 369.11C296.842 359.77 315.773 352.41 323.853 352.41Z" fill="#F8CDBA"/>
<path d="M220.102 553.07C220.102 555.45 221.492 570.39 218.722 571.78C215.952 573.17 185.503 573.99 184.123 572.61C182.743 571.23 181.913 568.32 183.123 567.49C184.333 566.66 196.122 564.3 197.722 563.19C199.322 562.08 201.532 556.19 200.722 553.07" fill="#1F161E"/>
<path d="M402.022 261.55C402.022 265.32 423.913 265.43 423.913 261.55V230.89H402.022V261.55Z" fill="#F8CDBA"/>
<path d="M409.152 241C411.152 241 423.913 246.64 423.913 249.79V233.15C420.733 233.15 409.152 241 409.152 241Z" fill="#1F161E"/>
<path d="M404.923 242.3C390.287 242.3 378.423 230.436 378.423 215.8C378.423 201.164 390.287 189.3 404.923 189.3C419.558 189.3 431.423 201.164 431.423 215.8C431.423 230.436 419.558 242.3 404.923 242.3Z" fill="#F8CDBA"/>
<path d="M377.573 195C380.853 200.21 387.713 202.6 395.143 202.6C401.473 202.6 410.693 200.76 417.253 204.5C420.803 206.5 424.873 211.05 425.693 220.16C425.693 221.72 427.462 227.77 427.462 229.72C427.462 231.05 428.962 231.92 431.462 231.92C432.752 231.92 435.303 229.83 435.303 226.64C435.303 222.95 433.833 221.64 433.833 218.51C433.833 215.38 437.663 212.37 437.663 203.67C437.663 191.14 429.663 183.42 424.003 183.42C418.843 183.42 417.223 184.62 416.573 185.13C416.573 173.74 401.572 168.54 395.622 168.54C388.822 168.54 385.622 171.33 385.622 174.88C385.622 180.54 388.323 185.35 389.693 186.43C386.591 183.64 382.564 182.104 378.393 182.12C370.603 182.12 367.983 187.24 367.983 190.74C367.983 198.35 377.113 205.4 380.513 205.4C381.368 203.59 382.371 201.854 383.513 200.21" fill="#1F161E"/>
<path d="M424.872 224.95C421.752 224.95 419.223 222.42 419.223 219.3C419.223 216.18 421.752 213.65 424.872 213.65C427.993 213.65 430.522 216.18 430.522 219.3C430.522 222.42 427.993 224.95 424.872 224.95Z" fill="#F8CDBA"/>
<path d="M378.163 220.66C375.743 220.66 373.783 219.639 373.783 218.38C373.783 217.121 375.743 216.1 378.163 216.1C380.582 216.1 382.543 217.121 382.543 218.38C382.543 219.639 380.582 220.66 378.163 220.66Z" fill="#FA9E9F"/>
<path d="M405.712 220.66C403.293 220.66 401.333 219.639 401.333 218.38C401.333 217.121 403.293 216.1 405.712 216.1C408.132 216.1 410.092 217.121 410.092 218.38C410.092 219.639 408.132 220.66 405.712 220.66Z" fill="#FA9E9F"/>
<path d="M388.863 213.65C388.043 214.82 383.862 219.73 388.272 221.72" stroke="#1F161E" stroke-miterlimit="10" stroke-linecap="round"/>
<path d="M397.103 227.45C398.423 227.45 400.452 225.81 401.522 224.34" stroke="#1F161E" stroke-miterlimit="10" stroke-linecap="round"/>
<path d="M362.163 298.62C360.163 302.87 350.513 343.87 350.513 356.86" stroke="#1F161E" stroke-miterlimit="10" stroke-linecap="round"/>
<path d="M497.342 348.41C497.342 394.5 496.913 407.87 478.413 407.87C435.773 407.87 371.313 372.87 359.823 372.87C349.673 372.87 344.373 378.11 338.383 378.11C334.213 378.11 326.693 374.82 326.693 370.37C326.693 361.02 345.623 353.66 353.693 353.66C371.863 353.66 444.373 371.18 446.143 371.18C447.913 371.18 450.893 370.41 450.893 367.43C450.893 362.02 447.353 349.52 446.893 348.43L497.342 348.41Z" fill="#F8CDBA"/>
<path d="M436.242 308.21C437.462 311.72 446.973 347.99 448.073 352.41" stroke="#1F161E" stroke-miterlimit="10" stroke-linecap="round"/>
<path d="M75.2043 588.747C74.4853 591.481 71.6855 593.115 68.9507 592.396C66.216 591.678 64.5819 588.878 65.3009 586.143L116.5 391.401C117.219 388.666 120.018 387.032 122.753 387.751C125.488 388.47 127.122 391.27 126.403 394.004L75.2043 588.747Z" fill="#969696"/>
<path d="M126.912 394.013C126.193 391.278 127.827 388.478 130.562 387.759C133.296 387.04 136.096 388.674 136.815 391.409L188.014 586.151C188.733 588.886 187.099 591.686 184.364 592.405C181.629 593.124 178.829 591.49 178.11 588.755L126.912 394.013Z" fill="#969696"/>
<path d="M197.56 394.011C196.841 391.277 198.475 388.477 201.21 387.758C203.945 387.039 206.745 388.673 207.464 391.408L258.662 586.15C259.381 588.885 257.747 591.685 255.012 592.404C252.278 593.123 249.478 591.489 248.759 588.754L197.56 394.011Z" fill="#D8D8D8"/>
<path d="M146.743 585.152C146.036 587.895 143.239 589.546 140.497 588.839C137.754 588.132 136.103 585.335 136.81 582.592L187.15 387.273C187.857 384.53 190.654 382.88 193.397 383.587C196.139 384.294 197.79 387.09 197.083 389.833L146.743 585.152Z" fill="#D8D8D8"/>
<path d="M485.981 394.017C485.262 391.282 486.896 388.482 489.631 387.763C492.366 387.044 495.166 388.678 495.885 391.413L547.083 586.155C547.802 588.89 546.168 591.69 543.433 592.409C540.699 593.128 537.899 591.494 537.18 588.759L485.981 394.017Z" fill="#969696"/>
<path d="M435.144 588.759C434.425 591.494 431.625 593.128 428.89 592.409C426.155 591.69 424.521 588.89 425.24 586.156L476.439 391.413C477.158 388.679 479.958 387.044 482.692 387.763C485.427 388.482 487.061 391.282 486.342 394.017L435.144 588.759Z" fill="#969696"/>
<path d="M95.3925 378.14H590.562C593.064 378.14 595.092 380.168 595.092 382.67V388.76C595.092 391.262 593.064 393.29 590.562 393.29H95.3925C92.8906 393.29 90.8625 391.262 90.8625 388.76V382.67C90.8625 380.168 92.8906 378.14 95.3925 378.14Z" fill="#D8D8D8"/>
<path d="M559.156 394.02C558.437 391.285 560.071 388.485 562.806 387.766C565.541 387.047 568.34 388.681 569.059 391.416L620.258 586.158C620.977 588.893 619.343 591.693 616.608 592.412C613.873 593.131 611.074 591.497 610.355 588.762L559.156 394.02Z" fill="#D8D8D8"/>
<path d="M508.319 588.76C507.6 591.494 504.8 593.128 502.065 592.409C499.331 591.691 497.696 588.891 498.415 586.156L549.614 391.414C550.333 388.679 553.133 387.045 555.868 387.764C558.602 388.483 560.237 391.283 559.518 394.017L508.319 588.76Z" fill="#D8D8D8"/>
<path d="M224.382 378.14H316.893L300.133 320.5C299.714 319.109 298.857 317.891 297.689 317.028C296.521 316.165 295.105 315.702 293.652 315.71H215.152C214.121 315.693 213.101 315.918 212.172 316.366C211.243 316.813 210.431 317.472 209.802 318.289C209.172 319.106 208.742 320.058 208.546 321.071C208.35 322.083 208.394 323.127 208.673 324.12L224.382 378.14Z" fill="black"/>
<path d="M259.283 352.58C256.157 352.58 253.622 350.046 253.622 346.92C253.622 343.794 256.157 341.26 259.283 341.26C262.408 341.26 264.943 343.794 264.943 346.92C264.943 350.046 262.408 352.58 259.283 352.58Z" fill="white"/>
<path d="M305.902 374.09H370.812V378.14H305.902V374.09Z" fill="black"/>
</g>
<defs>
<clipPath id="clip0">
<rect width="744.66" height="594.92" fill="white"/>
</clipPath>
</defs>
</svg>
